<?xml version="1.0" encoding="utf-8"?>
<!-- Generator: Adobe Illustrator 26.3.1, SVG Export Plug-In . SVG Version: 6.00 Build 0)  -->
<svg version="1.1" id="Livello_1" xmlns="http://www.w3.org/2000/svg" xmlns:xlink="http://www.w3.org/1999/xlink" x="0px" y="0px"
	viewBox="0 0 200 80.56" style="enable-background:new 0 0 200 80.56;" xml:space="preserve">
<style type="text/css">
	.st0{fill:url(#SVGID_1_);}
	.st1{fill:url(#SVGID_00000103245796458891981060000008394652140878798264_);}
	.st2{fill:url(#SVGID_00000118386142634770122050000008205903542000313524_);}
	.st3{fill:url(#SVGID_00000158007963600437905570000012733290457180837280_);}
	.st4{fill:url(#SVGID_00000060722093347654583060000013156985061325350318_);}
	.st5{fill:#8A41D7;}
</style>
<g>
	<g>
		<linearGradient id="SVGID_1_" gradientUnits="userSpaceOnUse" x1="12.1906" y1="21.9283" x2="23.7789" y2="21.9283">
			<stop  offset="0" style="stop-color:#FEB7E9"/>
			<stop  offset="1" style="stop-color:#C773FB"/>
		</linearGradient>
		<path class="st0" d="M23.59,21.81c-2.94-0.21-5.28-2.55-5.49-5.49c0-0.03,0-0.05-0.01-0.08c-0.01-0.14-0.22-0.14-0.23,0
			c0,0.06-0.01,0.12-0.01,0.18c-0.2,2.9-2.49,5.18-5.38,5.38c-0.06,0-0.11,0.01-0.17,0.01c-0.14,0.01-0.14,0.22,0,0.23
			c0.02,0,0.05,0,0.07,0c2.94,0.21,5.28,2.55,5.49,5.49c0,0.02,0,0.05,0,0.07c0.01,0.14,0.22,0.14,0.23,0
			c0-0.06,0.01-0.11,0.01-0.17c0.2-2.9,2.49-5.18,5.38-5.38c0.06,0,0.12-0.01,0.18-0.01c0.14-0.01,0.14-0.22,0-0.23
			C23.64,21.81,23.62,21.81,23.59,21.81z"/>
		
			<linearGradient id="SVGID_00000079482537361033820250000016206832460406524318_" gradientUnits="userSpaceOnUse" x1="10.4517" y1="58.7926" x2="36.2949" y2="23.9604">
			<stop  offset="0.6546" style="stop-color:#FFFFFF;stop-opacity:0"/>
			<stop  offset="1" style="stop-color:#FFFFFF;stop-opacity:0.3"/>
		</linearGradient>
		<circle style="fill:url(#SVGID_00000079482537361033820250000016206832460406524318_);" cx="23.77" cy="40.84" r="22.52"/>
		
			<linearGradient id="SVGID_00000106123937405513574860000017851541475316510130_" gradientUnits="userSpaceOnUse" x1="5.0923" y1="46.5498" x2="25.6852" y2="46.5498">
			<stop  offset="0" style="stop-color:#7C35CE"/>
			<stop  offset="0.9967" style="stop-color:#C673FB"/>
		</linearGradient>
		<path style="fill:url(#SVGID_00000106123937405513574860000017851541475316510130_);" d="M34.07,42.39
			c-9.05,0.83-12.39-7.82-17.73-11.6c-5.34-3.78-7.49-1.34-7.49-1.34c-2.63,3.96-4.03,8.78-3.7,13.89
			c0.78,12.23,11.36,21.67,23.6,21.05c12.37-0.62,21.76-11.15,21.29-23.41C45.25,36.86,43.11,41.57,34.07,42.39z"/>
		
			<linearGradient id="SVGID_00000006691785729977873170000009653896027506227101_" gradientUnits="userSpaceOnUse" x1="9.1369" y1="41.918" x2="50.0507" y2="41.918">
			<stop  offset="0" style="stop-color:#FEB7E9"/>
			<stop  offset="1" style="stop-color:#C773FB"/>
		</linearGradient>
		<path style="fill:url(#SVGID_00000006691785729977873170000009653896027506227101_);" d="M29.16,19.42
			c7.36,0.08,13.13,3.96,17.14,9.99c6.79,10.21,4.09,24.12-6.02,31.05c-10.22,7-24.09,4.42-31.15-5.62c0,0,3.36,2.84,5.53,0.91
			c2.18-1.94-0.54-8.72,5.02-10.11c4.58-1.15,15.58-5.21,11.81-11.62C26.73,25.91,23.51,19.36,29.16,19.42z"/>
		
			<linearGradient id="SVGID_00000087380751933048009510000016742440311665431948_" gradientUnits="userSpaceOnUse" x1="101.398" y1="-1982.5507" x2="107.7042" y2="-1982.5507" gradientTransform="matrix(0.34 0.9404 -0.9404 0.34 -1888.8322 627.3295)">
			<stop  offset="0" style="stop-color:#FEB7E9"/>
			<stop  offset="1" style="stop-color:#C773FB"/>
		</linearGradient>
		<path style="fill:url(#SVGID_00000087380751933048009510000016742440311665431948_);" d="M13.1,50.43c0.88,1.52,0.7,3.27-0.4,3.9
			c-1.1,0.64-2.7-0.08-3.58-1.6c-0.88-1.52-0.7-3.27,0.4-3.9C10.62,48.2,12.22,48.91,13.1,50.43z"/>
	</g>
	<g>
		<path class="st5" d="M60.64,28.26h13.69v2.75H63.92v8.45h9.62v2.72h-9.62v11.51h-3.28V28.26z"/>
		<path class="st5" d="M79.01,28.6c1.66-0.34,4.04-0.53,6.3-0.53c3.51,0,5.77,0.64,7.36,2.07c1.28,1.13,2,2.87,2,4.83
			c0,3.36-2.11,5.58-4.79,6.49v0.11c1.96,0.68,3.13,2.49,3.73,5.13c0.83,3.55,1.43,6,1.96,6.98h-3.4c-0.41-0.72-0.98-2.9-1.7-6.07
			c-0.75-3.51-2.11-4.83-5.09-4.94h-3.09v11.01h-3.28V28.6z M82.29,40.18h3.36c3.51,0,5.73-1.92,5.73-4.83
			c0-3.28-2.38-4.72-5.85-4.75c-1.58,0-2.72,0.15-3.24,0.3V40.18z"/>
		<path class="st5" d="M103.6,45.69l-2.64,8h-3.4l8.64-25.42h3.96l8.68,25.42h-3.51l-2.72-8H103.6z M111.94,43.12l-2.49-7.32
			c-0.57-1.66-0.94-3.17-1.32-4.64h-0.08c-0.38,1.51-0.79,3.06-1.28,4.6l-2.49,7.36H111.94z"/>
		<path class="st5" d="M143.85,42.52c-0.19-3.55-0.41-7.81-0.38-10.98h-0.11c-0.87,2.98-1.92,6.15-3.21,9.66l-4.49,12.34h-2.49
			l-4.11-12.11c-1.21-3.58-2.23-6.87-2.94-9.88h-0.08c-0.08,3.17-0.26,7.43-0.49,11.24l-0.68,10.9h-3.13l1.77-25.42h4.19l4.34,12.3
			c1.06,3.13,1.92,5.92,2.57,8.56h0.11c0.64-2.57,1.55-5.36,2.68-8.56l4.53-12.3h4.19l1.58,25.42h-3.21L143.85,42.52z"/>
		<path class="st5" d="M165.92,41.77h-9.88v9.17h11.01v2.75h-14.3V28.26h13.73v2.75h-10.45v8.03h9.88V41.77z"/>
		<path class="st5" d="M174.6,28.26v25.42h-3.28V28.26H174.6z"/>
		<path class="st5" d="M185.16,31.05h-7.73v-2.79h18.82v2.79h-7.77v22.63h-3.32V31.05z"/>
	</g>
</g>
</svg>
